<svg xmlns="http://www.w3.org/2000/svg" xmlns:xlink="http://www.w3.org/1999/xlink" version="1.1" id="svgHeaderLogo" x="0px" y="0px" viewBox="0 0 237.9 44.7" style="enable-background:new 0 0 237.9 44.7;" xml:space="preserve" width="237.9" height="44.7" >
					<path class="st0" d="M68.3,10.6c-2.9,10.3-5.7,20-8.3,29.8c-0.5,2-1.2,3-3.4,2.8c-2.1-0.2-4.3,0-6.7,0c-3.5-13.8-7-27.4-10.6-41.2  c2.9,0,5.6,0,8.4,0c2.3,10.4,4.6,20.8,7.1,31.7c3-10.9,5.8-21.3,8.7-31.8c3,0,5.9-0.1,8.7,0.1c0.6,0,1.4,0.8,1.6,1.4  c2.7,10.1,5.6,20.1,7.8,30.3c0.6,2.7-0.9,5.9-1.6,8.9c-0.1,0.4-1.3,0.8-1.8,0.7c-0.6-0.2-1.3-1-1.4-1.6c-1.4-5.2-2.7-10.4-4.1-15.6  c-1.1-4.2-2.3-8.5-3.5-12.7C68.9,12.4,68.7,11.8,68.3,10.6z" fill="#505BFE"></path>
					<path class="st0" d="M209.7,18.2c1,0.1,1.7,0.1,2.3,0.1c5.6,0,11.1,0,17,0c0-5.6,0-10.9,0-16.4c2.7,0,5.2,0,7.7,0  c0.1,0.4,0.2,0.8,0.2,1.1c0,13.2,0,26.5,0,39.9c-2.5,0-5,0-7.7,0c0-5.8,0-11.6,0-17.6c-6.5,0-12.7,0-19.3,0c0,5.8,0,11.7,0,17.7  c-2.7,0-5.1,0-7.6,0c0-13.6,0-27.2,0-41c2.4,0,4.8,0,7.5,0C209.7,7.3,209.7,12.6,209.7,18.2z" fill="#505BFE"></path>
					<path class="st0" d="M1.3,32.1c3.1-1.2,5.5-2.1,7.9-3c0.5,1.2,0.9,2.2,1.4,3.2c3.2,6,11.2,6.3,15,4c1.3-0.8,2.4-2.7,2.8-4.3  c0.5-2-0.7-3.9-2.7-4.5c-3.3-1-6.7-1.6-10.1-2.4c-4.4-1-8.6-2.3-10.5-6.9C2.4,11.9,4.8,5.7,10.9,2.7c7.9-3.9,18.7-1.8,23.3,4.7  c0.8,1.1,1.3,2.4,2.1,3.9c-2.6,1-4.9,2-7.3,2.9c-1.6-4.1-4.4-6.7-8.7-6.8c-2,0-4.4,0.4-6.1,1.4c-3.2,1.9-2.8,6.7,0.7,7.9  c3.6,1.2,7.4,1.7,11.1,2.6c4.2,1.1,8,3,9.8,7.3c2.4,5.6,0.2,11.9-5.2,15c-6.8,3.9-18.1,3.1-23.9-2.2C4.6,37.6,3.3,34.8,1.3,32.1z" fill="#505BFE"></path>
					<path class="st0" d="M195.4,13.4c-2.4,0.9-4.7,1.8-7,2.8c-0.3-0.5-0.5-0.8-0.7-1.2c-2.6-5.8-6.8-8.1-13.2-7.3  c-5.1,0.6-9,4.5-10.1,10.2c-0.9,4.8-0.7,9.4,1.8,13.7c2.5,4.4,6.5,6,11.3,5.7c4.5-0.2,7.8-2.4,9.9-6.5c0.3-0.7,0.6-1.3,1.1-2.3  c2.3,0.9,4.6,1.8,6.8,2.6c-2,8.5-11,14-21,12.9c-11.7-1.3-17.9-9.2-18.7-20.1c-0.8-11.2,6.1-20.7,15.8-22.6  C182.8-0.8,191.9,3.6,195.4,13.4z" fill="#505BFE"></path>
					<path class="st0" d="M117.3,8.6c0.5-2.5,0.9-4.5,1.4-6.7c11.7,0,23.3,0,35.1,0c0,2.1,0,4.2,0,6.6c-4.7,0-9.4,0-14.3,0  c0,11.6,0,22.9,0,34.4c-2.6,0-5.1,0-7.8,0c0-11.3,0-22.7,0-34.4C126.8,8.6,122.3,8.6,117.3,8.6z" fill="#505BFE"></path>
					<path class="st1" d="M90.7,43c-2.6,0-5,0-7.7,0c2.9-13.8,5.8-27.4,8.7-41.1c2.6,0,5,0,7.7,0C96.5,15.6,93.6,29.3,90.7,43z" fill="#00C389"></path>
					<path class="st1" d="M105.2,1.9c2.8,0,5.2,0,7.8,0c-2.9,13.8-5.8,27.4-8.7,41.1c-2.5,0-4.9,0-7.7,0C99.4,29.2,102.3,15.6,105.2,1.9z  " fill="#00C389"></path>
				</svg>